<svg xmlns="http://www.w3.org/2000/svg" xmlns:xlink="http://www.w3.org/1999/xlink" width="2000" height="2000" viewBox="0 0 1500 1500"><defs><clipPath id="c"><path d="M172.453 109.906h1120.078V1426H172.453Zm0 0"/></clipPath><clipPath id="d"><path d="M732.492 109.906c-309.3 0-560.039 294.578-560.039 657.957s250.738 657.953 560.04 657.953c309.3 0 560.038-294.574 560.038-657.953s-250.738-657.957-560.039-657.957m0 0"/></clipPath><clipPath id="f"><path d="M.453 1h1120.078v1315.84H.453Zm0 0"/></clipPath><clipPath id="g"><path d="M560.492.906C251.192.906.453 295.484.453 658.863s250.738 657.953 560.04 657.953c309.3 0 560.038-294.574 560.038-657.953S869.793.906 560.492.906m0 0"/></clipPath><clipPath id="e"><path d="M0 0h1121v1317H0z"/></clipPath><filter id="a" width="100%" height="100%" x="0%" y="0%"><feColorMatrix color-interpolation-filters="sRGB" values="0 0 0 0 1 0 0 0 0 1 0 0 0 0 1 0 0 0 1 0"/></filter><filter id="b" width="100%" height="100%" x="0%" y="0%"><feColorMatrix color-interpolation-filters="sRGB" values="0 0 0 0 1 0 0 0 0 1 0 0 0 0 1 0.2126 0.7152 0.0722 0 0"/></filter><mask id="h"><g filter="url(#a)"><g filter="url(#b)" transform="matrix(.16706 0 0 .1673 -295.385 .906)"><image xlink:href="/glow-logo-img-1.png" width="10240" height="7872"/></g></g></mask></defs><g clip-path="url(#c)"><g clip-path="url(#d)"><g clip-path="url(#e)" transform="translate(172 109)"><g clip-path="url(#f)"><g clip-path="url(#g)" mask="url(#h)"><image xlink:href="/glow-logo-img-2.png" width="10240" height="7872" transform="matrix(.16706 0 0 .1673 -295.385 .906)"/></g></g></g></g></g></svg>